<svg width="657" height="559" viewBox="0 0 657 559" fill="none" xmlns="http://www.w3.org/2000/svg">
<path d="M232.205 132.181C232.274 132.692 232.189 133.211 231.963 133.674C231.736 134.136 231.378 134.521 230.934 134.78C230.489 135.038 229.978 135.159 229.464 135.127C228.951 135.094 228.459 134.91 228.05 134.597C227.642 134.285 227.335 133.858 227.168 133.37C227.001 132.883 226.983 132.357 227.115 131.859C227.246 131.361 227.523 130.914 227.908 130.573C228.294 130.232 228.772 130.014 229.281 129.945C229.965 129.856 230.655 130.041 231.203 130.46C231.751 130.879 232.111 131.497 232.205 132.181V132.181Z" fill="#5DBD6D"/>
<path d="M321.943 232.89C321.965 233.06 321.954 233.232 321.909 233.397C321.865 233.562 321.788 233.717 321.684 233.852C321.58 233.988 321.45 234.102 321.302 234.187C321.154 234.272 320.991 234.327 320.822 234.349C320.652 234.371 320.48 234.36 320.316 234.315C320.151 234.271 319.996 234.194 319.861 234.09C319.726 233.985 319.613 233.855 319.528 233.707C319.442 233.559 319.387 233.395 319.365 233.226C319.321 232.883 319.414 232.537 319.624 232.263C319.835 231.99 320.145 231.811 320.487 231.767C320.829 231.722 321.174 231.816 321.447 232.026C321.721 232.237 321.899 232.548 321.943 232.89V232.89Z" fill="#5DBD6D"/>
<path d="M276.232 85.4824C276.267 85.7391 276.226 86.0006 276.113 86.2336C276 86.4667 275.82 86.6608 275.596 86.7914C275.373 86.922 275.116 86.9831 274.858 86.9671C274.599 86.951 274.352 86.8585 274.146 86.7013C273.941 86.544 273.786 86.3291 273.703 86.0839C273.619 85.8386 273.61 85.574 273.677 85.3236C273.744 85.0733 273.884 84.8484 274.078 84.6777C274.273 84.5069 274.513 84.3979 274.77 84.3644C275.112 84.3199 275.457 84.4124 275.731 84.6218C276.005 84.8312 276.185 85.1405 276.232 85.4824Z" fill="#5DBD6D"/>
<path d="M437.728 56.2242C437.772 56.5667 437.679 56.9128 437.469 57.1864C437.258 57.46 436.948 57.6387 436.606 57.6832C436.265 57.7277 435.919 57.6343 435.646 57.4236C435.373 57.2129 435.194 56.9021 435.15 56.5596C435.106 56.2172 435.199 55.871 435.409 55.5974C435.619 55.3238 435.93 55.1451 436.272 55.1006C436.613 55.0562 436.959 55.1495 437.232 55.3603C437.505 55.571 437.684 55.8818 437.728 56.2242V56.2242Z" fill="#263238"/>
<path d="M290.963 155.312C291.003 155.489 291.006 155.673 290.971 155.851C290.936 156.029 290.865 156.198 290.762 156.348C290.658 156.497 290.525 156.623 290.37 156.717C290.216 156.812 290.043 156.873 289.863 156.897C289.684 156.922 289.501 156.908 289.327 156.858C289.153 156.807 288.991 156.721 288.852 156.604C288.713 156.488 288.599 156.344 288.519 156.181C288.439 156.018 288.393 155.84 288.385 155.659C288.371 155.332 288.479 155.012 288.688 154.762C288.897 154.511 289.193 154.348 289.516 154.305C289.839 154.261 290.167 154.34 290.435 154.527C290.703 154.713 290.891 154.994 290.963 155.312V155.312Z" fill="#263238"/>
<path d="M410.687 272.379C410.709 272.548 410.698 272.72 410.653 272.885C410.609 273.051 410.532 273.205 410.428 273.341C410.324 273.476 410.194 273.59 410.046 273.675C409.898 273.76 409.735 273.815 409.566 273.837C409.397 273.86 409.225 273.848 409.06 273.803C408.895 273.759 408.741 273.682 408.605 273.578C408.47 273.474 408.357 273.344 408.272 273.195C408.187 273.047 408.131 272.883 408.109 272.714C408.065 272.371 408.158 272.025 408.369 271.752C408.579 271.478 408.889 271.299 409.231 271.255C409.573 271.21 409.918 271.304 410.192 271.515C410.465 271.725 410.643 272.036 410.687 272.379V272.379Z" fill="#455A64"/>
<path d="M226.302 279.903C226.335 280.157 226.292 280.416 226.179 280.645C226.065 280.875 225.886 281.066 225.664 281.194C225.442 281.323 225.188 281.382 224.932 281.365C224.677 281.348 224.432 281.255 224.229 281.099C224.026 280.942 223.874 280.729 223.792 280.486C223.71 280.243 223.702 279.981 223.768 279.733C223.835 279.486 223.973 279.263 224.166 279.094C224.359 278.926 224.597 278.818 224.851 278.785C225.02 278.761 225.192 278.772 225.356 278.815C225.521 278.859 225.675 278.935 225.81 279.039C225.945 279.143 226.058 279.273 226.143 279.421C226.227 279.57 226.281 279.733 226.302 279.903V279.903Z" fill="#5DBD6D"/>
<path d="M103.178 277.261C103.246 277.771 103.161 278.291 102.935 278.753C102.709 279.216 102.35 279.601 101.906 279.859C101.461 280.118 100.95 280.238 100.437 280.206C99.9233 280.174 99.4312 279.989 99.0225 279.677C98.6138 279.364 98.3067 278.937 98.1402 278.45C97.9736 277.963 97.9551 277.437 98.0868 276.939C98.2186 276.441 98.4948 275.993 98.8805 275.652C99.2662 275.312 99.744 275.093 100.254 275.025C100.592 274.977 100.937 274.998 101.268 275.085C101.599 275.172 101.909 275.324 102.181 275.532C102.453 275.74 102.681 276 102.852 276.296C103.023 276.593 103.134 276.921 103.178 277.261V277.261Z" fill="#5DBD6D"/>
<path d="M345.58 56.0453C345.648 56.5559 345.564 57.0753 345.337 57.5378C345.111 58.0004 344.753 58.3853 344.308 58.6439C343.863 58.9025 343.352 59.0232 342.839 58.9908C342.326 58.9583 341.834 58.7742 341.425 58.4616C341.016 58.149 340.709 57.7221 340.543 57.2347C340.376 56.7473 340.357 56.2214 340.489 55.7235C340.621 55.2255 340.897 54.7779 341.283 54.4372C341.668 54.0965 342.146 53.878 342.656 53.8093C342.995 53.7637 343.339 53.7854 343.669 53.8731C343.999 53.9607 344.309 54.1128 344.58 54.3204C344.852 54.5281 345.08 54.7873 345.251 55.0832C345.423 55.3792 345.535 55.7061 345.58 56.0453Z" fill="#5DBD6D"/>
<path d="M522.346 320L527 318.512C527 318.512 523.827 316.956 523.827 312.116C523.827 307.275 528.185 305.411 526.309 301L521.119 302.341C521.703 303.492 522.026 304.747 522.067 306.024C522.108 307.301 521.867 308.573 521.359 309.756C520.034 312.518 518.736 315.83 522.346 320Z" fill="#5DBD6D"/>
<path d="M178 51.0982L172.377 48.9999C172.377 48.9999 174.081 53.0566 170.229 57.9525C166.378 62.8484 160.738 61.4496 159 67.2722L164.913 69.9999C165.287 68.3768 165.99 66.8528 166.977 65.5272C167.963 64.2016 169.211 63.1041 170.638 62.3064C174.234 60.5403 178.034 58.1798 178 51.0982Z" fill="#455A64"/>
<path d="M563.399 216.364L559.761 215C559.761 215 560.877 217.594 558.354 220.724C555.832 223.854 552.138 222.96 551 226.683L554.872 228.427C555.118 227.389 555.578 226.415 556.224 225.567C556.87 224.72 557.687 224.018 558.622 223.508C560.955 222.379 563.455 220.869 563.399 216.364Z" fill="#455A64"/>
<path d="M656.399 479.364L652.761 478C652.761 478 653.877 480.594 651.354 483.724C648.832 486.854 645.138 485.96 644 489.683L647.872 491.427C648.118 490.389 648.578 489.415 649.224 488.567C649.87 487.72 650.687 487.018 651.622 486.508C653.955 485.379 656.455 483.869 656.399 479.364Z" fill="#455A64"/>
<path d="M469.824 295.689L470.349 291.832C470.349 291.832 468.117 293.509 464.467 291.72C460.818 289.931 460.963 286.13 457.035 285.851L456.198 290.021C457.256 290.038 458.299 290.277 459.26 290.722C460.221 291.166 461.078 291.807 461.778 292.603C463.396 294.604 465.449 296.706 469.824 295.689Z" fill="#455A64"/>
<path d="M454.111 117.491L454.635 113.645C454.635 113.645 452.403 115.322 448.754 113.533C445.105 111.744 445.25 107.943 441.321 107.664L440.484 111.834C441.542 111.85 442.584 112.088 443.545 112.53C444.506 112.973 445.364 113.612 446.064 114.405C447.705 116.406 449.736 118.508 454.111 117.491Z" fill="#5DBD6D"/>
<path d="M656 14.9717L650.698 11.9999C650.698 11.9999 646.352 18.6418 651.567 21.9999C651.552 22.0148 650.48 17.6909 656 14.9717Z" fill="#5DBD6D"/>
<path d="M651.137 28.9999L656.997 27.1565C656.997 27.1565 657.346 22.8896 651 22.0001C651.03 21.9743 655.008 25.8416 651.137 28.9999Z" fill="#5DBD6D"/>
<path d="M303.372 267.202L307.669 265.592C307.669 265.592 307.926 261.903 303.205 261.12C303.261 261.12 306.185 264.474 303.372 267.202Z" fill="#455A64"/>
<path d="M466.331 108.11C466.262 107.599 466.347 107.079 466.573 106.616C466.8 106.153 467.159 105.768 467.604 105.509C468.049 105.251 468.561 105.13 469.075 105.164C469.589 105.197 470.081 105.382 470.489 105.695C470.898 106.009 471.205 106.437 471.37 106.925C471.536 107.414 471.553 107.94 471.419 108.438C471.286 108.936 471.008 109.384 470.621 109.723C470.233 110.063 469.754 110.28 469.244 110.346C468.562 110.435 467.872 110.25 467.326 109.831C466.78 109.412 466.422 108.793 466.331 108.11V108.11Z" fill="#263238"/>
<path d="M496.653 265.424C496.619 265.169 496.662 264.911 496.776 264.681C496.889 264.451 497.068 264.26 497.29 264.132C497.512 264.004 497.767 263.945 498.022 263.962C498.278 263.979 498.523 264.071 498.725 264.228C498.928 264.384 499.081 264.597 499.163 264.84C499.245 265.083 499.253 265.345 499.186 265.593C499.12 265.841 498.981 266.063 498.788 266.232C498.596 266.401 498.357 266.509 498.103 266.542C497.763 266.586 497.419 266.493 497.147 266.284C496.875 266.074 496.697 265.765 496.653 265.424V265.424Z" fill="#5DBD6D"/>
<path d="M647.905 267.615L641.711 269.37C641.711 269.37 638.754 261.611 644.903 259.42C644.903 259.375 642.805 263.557 647.905 267.615Z" fill="#455A64"/>
<path d="M646.889 251.226L652.213 254.702C652.213 254.702 651.431 259.767 644.903 259.42C644.903 259.376 649.858 255.787 646.889 251.226Z" fill="#455A64"/>
<path d="M448.888 205.03L442.661 206.83C442.661 206.83 439.715 199.071 445.853 196.88C445.853 196.835 443.766 200.972 448.888 205.03Z" fill="#263238"/>
<path d="M447.85 188.64L453.173 192.117C453.173 192.117 452.392 197.182 445.853 196.835C445.853 196.835 450.819 193.202 447.85 188.64Z" fill="#263238"/>
<path d="M237.373 241.678L231.168 243.434C231.168 243.434 228.221 235.675 234.36 233.483C234.36 233.483 232.261 237.62 237.373 241.678Z" fill="#263238"/>
<path d="M497.724 192.542L501.82 194.778C501.82 194.778 505.168 189.769 501.15 187.254C501.15 187.243 501.965 190.485 497.724 192.542Z" fill="#455A64"/>
<path d="M501.038 181.116L496.731 182.726C496.731 182.726 496.485 186.415 501.195 187.198C501.15 187.243 498.226 183.889 501.038 181.116Z" fill="#455A64"/>
<path d="M355.334 172.865L359.43 175.101C359.43 175.101 362.778 170.104 358.76 167.577C358.76 167.566 359.608 170.819 355.334 172.865Z" fill="#5DBD6D"/>
<path d="M358.648 161.473L354.341 163.071C354.341 163.071 354.095 166.772 358.805 167.543C358.76 167.566 355.836 164.223 358.648 161.473Z" fill="#5DBD6D"/>
<path d="M0.682617 499.534L77.4436 499.265L154.204 499.165L307.726 498.975L461.248 499.165L538.009 499.265L614.77 499.534L538.009 499.813L461.248 499.903L307.726 500.093L154.204 499.903L77.4436 499.802L0.682617 499.534Z" fill="#BFBFBF"/>
<path d="M426.222 238.603C409.661 249.247 381.225 256.268 359.028 254.311C355.536 254.054 352.072 253.504 348.671 252.668C344.107 251.55 339.665 250.287 335.38 249.113C306.855 241.287 282.236 234.579 239.783 246.172C189.083 260.013 177.778 266.296 176.796 266.43L184.284 258.258L174.352 252.053C174.586 252.053 186.059 245.714 235.922 232.097C282.191 219.474 309.857 227.043 339.152 235.048C343.393 236.166 347.767 237.407 352.209 238.548C353.931 238.98 355.674 239.324 357.432 239.576C378.547 242.617 409.125 235.104 421.747 225.042C423.073 224.029 424.169 222.745 424.961 221.274L425.173 236.926C425.452 237.161 425.742 237.754 426.222 238.603Z" fill="#5DBD6D"/>
<path opacity="0.2" d="M426.222 238.603C409.661 249.247 381.225 256.268 359.028 254.311C355.536 254.054 352.072 253.504 348.671 252.668C344.107 251.55 339.665 250.287 335.38 249.113C306.855 241.287 282.236 234.579 239.783 246.172C189.083 260.013 177.778 266.296 176.796 266.43L184.284 258.258L174.352 252.053C174.586 252.053 186.059 245.714 235.922 232.097C282.191 219.474 309.857 227.043 339.152 235.048C343.393 236.166 347.767 237.407 352.209 238.548C353.931 238.98 355.674 239.324 357.432 239.576C378.547 242.617 409.125 235.104 421.747 225.042C423.073 224.029 424.169 222.745 424.961 221.274L425.173 236.926C425.452 237.161 425.742 237.754 426.222 238.603Z" fill="black"/>
<path d="M422.907 215.841C422.907 215.841 423.164 253.428 415.821 261.545C415.821 261.545 367.375 350.885 341.272 355.96C319.164 360.265 238.667 300.552 238.667 300.552L264.123 261.266C264.123 261.266 278.196 268.13 297.391 278.628C313.238 287.304 326.853 297.131 327.266 296.404C333.27 285.582 357.755 254.826 357.275 252.802C351.974 230.297 368 215.908 368 215.908L422.907 215.841Z" fill="#263238"/>
<path d="M415.81 261.545C415.81 261.545 403.913 283.502 388.724 306.265L357.264 252.769C351.985 230.274 368.011 215.875 368.011 215.875H422.918C422.918 215.875 423.153 253.428 415.81 261.545Z" fill="#37474F"/>
<path d="M165.636 293.251C166.361 290.535 208.58 227.077 211.727 225.691C212.91 225.143 264.179 261.265 264.179 261.265L238.745 300.395L206.091 279.31C206.091 279.31 179.776 295.935 176.16 297.097C172.544 298.26 164.9 295.957 165.636 293.251Z" fill="#FFCCB3"/>
<path d="M165.647 293.251C166.373 290.534 208.58 227.077 211.716 225.69C212.285 225.422 228.456 236.446 238.109 243.086L211.961 283.167L206.035 279.354C206.035 279.354 179.776 295.923 176.16 297.097C172.544 298.271 164.9 295.945 165.647 293.251Z" fill="#EBEBEB"/>
<path d="M165.491 293.541C166.227 290.847 208.289 226.573 211.403 225.176C212.586 224.639 222.172 231.079 232.35 239.117L205.935 280.014C205.935 280.014 179.563 296.202 175.981 297.387C172.399 298.572 164.765 296.269 165.491 293.541Z" fill="#5DBD6D"/>
<path d="M168.616 294.325C175.926 283.905 204.384 241.187 210.812 230.331C210.812 230.241 210.812 230.197 210.745 230.331C203.29 240.493 175.167 283.447 168.448 294.247C168.303 294.437 168.471 294.538 168.616 294.325Z" fill="#263238"/>
<path d="M180.947 294.817C181.763 293.66 182.33 292.346 182.61 290.958C182.891 289.571 182.879 288.139 182.577 286.756C182.06 284.26 180.6 282.061 178.503 280.618C178.503 280.618 178.369 280.685 178.425 280.741C180.282 282.496 181.519 284.808 181.949 287.329C182.38 289.85 181.981 292.442 180.813 294.716C180.769 294.817 180.892 294.906 180.947 294.817Z" fill="#263238"/>
<path d="M202.665 282.619C205.544 278.426 207.318 272.557 205.611 267.571C205.544 267.381 205.276 267.47 205.254 267.638C204.728 272.641 203.67 277.573 202.095 282.351C202.081 282.422 202.091 282.496 202.123 282.561C202.156 282.626 202.209 282.678 202.275 282.709C202.34 282.74 202.414 282.748 202.485 282.732C202.556 282.715 202.619 282.676 202.665 282.619Z" fill="#263238"/>
<path d="M199.216 285.09C202.096 280.898 203.87 275.028 202.163 270.031C202.096 269.841 201.828 269.941 201.805 270.109C201.279 275.112 200.22 280.044 198.647 284.822C198.633 284.893 198.642 284.967 198.675 285.032C198.707 285.097 198.761 285.149 198.826 285.18C198.892 285.211 198.966 285.219 199.037 285.203C199.108 285.187 199.171 285.147 199.216 285.09Z" fill="#263238"/>
<path d="M195.768 287.471C198.647 283.267 200.422 277.409 198.714 272.412C198.647 272.222 198.379 272.322 198.357 272.49C197.83 277.489 196.772 282.418 195.199 287.192C195.18 287.264 195.187 287.34 195.218 287.408C195.249 287.476 195.303 287.531 195.37 287.563C195.437 287.596 195.513 287.605 195.585 287.588C195.658 287.571 195.722 287.53 195.768 287.471V287.471Z" fill="#263238"/>
<path d="M192.32 289.898C195.199 285.694 196.973 279.78 195.266 274.838C195.199 274.648 194.931 274.749 194.909 274.917C194.382 279.916 193.323 284.845 191.75 289.618C191.732 289.691 191.739 289.767 191.77 289.835C191.801 289.902 191.855 289.957 191.921 289.99C191.988 290.023 192.064 290.032 192.137 290.015C192.209 289.998 192.274 289.957 192.32 289.898V289.898Z" fill="#263238"/>
<path d="M219.059 239.721C222.206 234.958 214.818 230.05 211.671 234.824C208.524 239.598 215.912 244.495 219.059 239.721Z" fill="#263238"/>
<path d="M210.912 294.75C214.126 293.777 214.182 289.909 213.222 287.371C211.846 283.926 209.771 280.804 207.129 278.203C206.772 277.823 206.392 277.477 206.013 277.085C205.838 276.953 205.67 276.811 205.511 276.66C205.511 276.66 205.511 276.66 205.511 276.66L205.365 276.571L204.953 276.236C204.936 276.224 204.916 276.217 204.896 276.214C204.876 276.211 204.855 276.213 204.836 276.22C204.816 276.226 204.799 276.237 204.784 276.251C204.77 276.266 204.758 276.283 204.752 276.303C204.633 276.261 204.506 276.254 204.383 276.282C204.261 276.309 204.149 276.371 204.06 276.459C204.008 276.505 203.967 276.562 203.94 276.626C203.913 276.69 203.901 276.759 203.904 276.828C203.904 278.047 203.904 279.299 203.904 280.551C203.892 280.767 203.892 280.983 203.904 281.199C203.745 284.248 204.1 287.302 204.953 290.233C205.778 292.76 207.888 295.644 210.912 294.75ZM205.332 283.57C205.332 282.519 205.265 281.468 205.232 280.428C205.198 279.388 205.165 278.662 205.12 277.778C205.12 277.655 205.12 277.521 205.12 277.409C205.12 277.298 205.12 277.175 205.12 277.074L205.321 277.32C205.745 277.89 206.158 278.438 206.593 278.986C207.745 280.468 208.814 282.013 209.796 283.614C210.482 284.72 211.094 285.87 211.626 287.058C212.407 288.914 213.166 295.443 208.278 292.782C205.6 291.34 205.488 286.119 205.388 283.547L205.332 283.57Z" fill="#263238"/>
<path d="M204.595 277.365C204.595 277.386 204.599 277.406 204.608 277.425C204.616 277.444 204.629 277.461 204.646 277.474C204.662 277.487 204.681 277.496 204.701 277.5C204.722 277.505 204.743 277.504 204.763 277.499C204.896 277.475 205.027 277.438 205.153 277.387C205.204 277.406 205.259 277.406 205.31 277.387C205.31 277.387 205.31 277.387 205.31 277.387C205.544 277.354 205.773 277.291 205.99 277.197C206.812 276.964 207.614 276.669 208.39 276.314C211.51 275.003 214.352 273.105 216.76 270.724C218.679 268.79 220.175 265.235 217.63 263.054C217.538 262.977 217.441 262.907 217.34 262.842C214.985 261.132 212.05 262.842 210.343 264.72C208.638 266.734 207.249 268.996 206.225 271.428C205.477 273.116 204.774 274.782 203.993 276.47C203.942 276.569 203.919 276.678 203.925 276.789C203.932 276.899 203.968 277.005 204.029 277.097C204.091 277.188 204.176 277.261 204.276 277.309C204.375 277.356 204.486 277.375 204.595 277.365V277.365ZM208.077 271.048C209.193 268.723 211.425 264.005 214.505 263.748C215.212 263.652 215.931 263.74 216.592 264.005C218.958 265.123 216.447 269.181 215.231 270.333C214.267 271.212 213.245 272.027 212.173 272.77C211.37 273.34 210.555 273.888 209.696 274.346C208.323 275.174 206.917 275.923 205.522 276.716C205.432 276.716 205.354 276.828 205.265 276.862C205.319 276.783 205.36 276.696 205.388 276.605C205.522 276.381 205.633 276.18 205.745 275.945C206.537 274.335 207.274 272.68 208.077 271.048Z" fill="#263238"/>
<path d="M586.413 455.127C584.66 457.363 520.691 498.65 517.221 498.729C515.915 498.729 483.328 445.165 483.328 445.165L522.254 419.451L543.793 451.873C543.793 451.873 574.483 447.166 578.255 447.535C582.027 447.904 588.165 452.935 586.413 455.127Z" fill="#FFCCB3"/>
<path d="M586.401 455.126C584.66 457.362 520.68 498.65 517.209 498.728C516.584 498.728 506.15 482.171 499.934 472.221L539.875 445.914L543.781 451.784C543.781 451.784 574.46 447.077 578.243 447.446C582.027 447.815 588.165 452.946 586.401 455.126Z" fill="#EBEBEB"/>
<path d="M586.658 454.914C584.917 457.15 520.758 499.231 517.343 499.265C516.038 499.265 509.822 489.549 503.684 478.112L544.183 451.168C544.183 451.168 574.817 446.842 578.567 447.211C582.317 447.58 588.388 452.723 586.658 454.914Z" fill="#5DBD6D"/>
<path d="M584.103 452.946C573.255 459.587 530.155 487.392 519.933 494.771C519.855 494.838 519.933 494.894 519.933 494.838C530.825 488.499 573.713 460.347 584.17 453.125C584.437 452.969 584.337 452.79 584.103 452.946Z" fill="#263238"/>
<path d="M572.998 447.569C571.794 448.302 570.755 449.276 569.944 450.43C569.134 451.585 568.57 452.894 568.289 454.277C567.773 456.769 568.237 459.364 569.583 461.522C569.583 461.589 569.74 461.522 569.706 461.443C568.702 459.094 568.486 456.481 569.09 453.998C569.693 451.514 571.084 449.294 573.054 447.67C573.166 447.636 573.077 447.513 572.998 447.569Z" fill="#263238"/>
<path d="M548.212 450.073C543.904 452.779 539.92 457.486 539.519 462.707C539.519 462.908 539.786 462.93 539.876 462.774C542.351 458.398 545.288 454.301 548.636 450.554C548.686 450.495 548.714 450.419 548.713 450.341C548.712 450.263 548.683 450.188 548.632 450.13C548.58 450.072 548.509 450.034 548.432 450.024C548.355 450.013 548.277 450.031 548.212 450.073V450.073Z" fill="#263238"/>
<path d="M552.352 449.223C548.033 451.929 544.06 456.647 543.659 461.857C543.659 462.058 543.927 462.08 544.016 461.935C546.487 457.556 549.421 453.456 552.765 449.704C552.81 449.645 552.833 449.572 552.831 449.498C552.829 449.424 552.801 449.353 552.753 449.296C552.705 449.24 552.638 449.202 552.566 449.189C552.493 449.176 552.417 449.188 552.352 449.223Z" fill="#263238"/>
<path d="M556.482 448.385C552.163 451.091 548.19 455.798 547.788 461.019C547.788 461.22 548.056 461.243 548.145 461.086C550.617 456.711 553.55 452.614 556.895 448.866C556.94 448.807 556.963 448.734 556.961 448.66C556.958 448.586 556.931 448.515 556.882 448.458C556.834 448.402 556.768 448.364 556.695 448.351C556.622 448.338 556.547 448.35 556.482 448.385V448.385Z" fill="#263238"/>
<path d="M560.611 447.536C556.292 450.241 552.319 454.959 551.917 460.169C551.917 460.371 552.185 460.393 552.274 460.248C554.746 455.869 557.679 451.768 561.024 448.017C561.068 447.958 561.092 447.885 561.089 447.811C561.087 447.736 561.06 447.665 561.011 447.609C560.963 447.553 560.897 447.515 560.824 447.501C560.751 447.488 560.676 447.5 560.611 447.536V447.536Z" fill="#263238"/>
<path d="M516.116 482.864C511.328 485.972 516.116 493.429 520.937 490.31C525.758 487.191 520.904 479.745 516.116 482.864Z" fill="#263238"/>
<path d="M545.489 435.662C542.141 435.26 540.567 438.793 540.433 441.51C540.328 445.215 540.985 448.903 542.364 452.343C542.543 452.835 542.755 453.304 542.967 453.763C543.078 453.953 543.168 454.154 543.257 454.344L543.357 454.49L543.603 454.959C543.615 454.975 543.631 454.988 543.65 454.998C543.668 455.007 543.688 455.011 543.709 455.011C543.729 455.011 543.749 455.007 543.768 454.998C543.786 454.988 543.802 454.975 543.815 454.959C543.907 455.047 544.022 455.106 544.147 455.13C544.271 455.154 544.4 455.141 544.518 455.093C544.583 455.072 544.642 455.037 544.692 454.99C544.742 454.944 544.781 454.888 544.808 454.825C545.266 453.707 545.779 452.589 546.281 451.404C546.382 451.214 546.46 451.024 546.549 450.822C547.907 448.087 548.797 445.143 549.183 442.113C549.406 439.542 548.625 436.02 545.489 435.662ZM546.103 448.139C545.723 449.123 545.321 450.096 544.987 451.057C544.652 452.019 544.339 452.712 544.027 453.539C544.027 453.651 543.938 453.785 543.904 453.886L543.793 454.199C543.793 454.098 543.737 453.998 543.714 453.897C543.692 453.796 543.714 453.897 543.714 453.897C543.547 453.215 543.402 452.544 543.223 451.862C542.744 450.045 542.372 448.2 542.107 446.339C541.923 445.05 541.822 443.751 541.806 442.449C541.806 440.436 543.726 434.153 547.141 438.536C548.982 440.906 547.029 445.747 546.103 448.139V448.139Z" fill="#263238"/>
<path d="M544.362 454.121C544.371 454.102 544.375 454.081 544.375 454.061C544.374 454.04 544.369 454.019 544.359 454.001C544.349 453.982 544.335 453.966 544.318 453.954C544.302 453.942 544.282 453.934 544.261 453.931C544.128 453.916 543.993 453.916 543.86 453.931C543.835 453.919 543.809 453.913 543.781 453.913C543.754 453.913 543.728 453.919 543.703 453.931C543.703 453.931 543.703 453.931 543.703 453.931C543.477 453.874 543.245 453.844 543.011 453.842C542.165 453.723 541.31 453.67 540.456 453.685C537.078 453.631 533.721 454.227 530.568 455.44C528.046 456.447 525.256 459.107 526.718 462.148C526.771 462.256 526.83 462.361 526.896 462.461C528.381 464.966 531.762 464.552 534.061 463.579C536.439 462.405 538.622 460.87 540.534 459.029C541.895 457.788 543.212 456.491 544.563 455.284C544.682 455.225 544.779 455.13 544.839 455.011C544.899 454.893 544.919 454.758 544.897 454.627C544.874 454.496 544.81 454.376 544.713 454.285C544.617 454.194 544.494 454.136 544.362 454.121V454.121ZM538.659 458.526C536.684 460.203 532.755 463.635 529.854 462.651C529.168 462.464 528.544 462.098 528.046 461.589C526.305 459.633 530.278 456.894 531.807 456.324C533.04 455.905 534.301 455.569 535.579 455.317C536.539 455.116 537.51 454.971 538.48 454.848C540.076 454.647 541.661 454.524 543.257 454.345H543.558C543.479 454.402 543.404 454.465 543.335 454.535C543.123 454.691 542.944 454.837 542.744 455.004C541.371 456.145 540.043 457.352 538.659 458.526Z" fill="#263238"/>
<path d="M523.437 420.659L483.361 445.109C483.361 445.109 442.505 402.145 433.141 365.049C430.318 353.869 382.62 284.218 366.617 266.766C345.558 243.791 366.784 215.808 366.784 215.808H424.95L425.24 236.837C429.816 244.272 523.437 420.659 523.437 420.659Z" fill="#263238"/>
<path d="M413.176 226.954C415.429 228.297 417.571 229.819 419.582 231.504C421.618 233.16 423.521 234.973 425.273 236.927C423.017 235.583 420.875 234.058 418.867 232.365C416.831 230.714 414.928 228.904 413.176 226.954Z" fill="#37474F"/>
<path d="M403.288 107.697C402.574 103.225 401.625 98.5182 394.952 96.3493C380.633 91.7096 370.4 111.263 353.872 117.524C333.962 125.104 325.972 137.145 334.074 144.882C343.125 153.546 359.932 148.716 373.837 124.758C382.542 109.788 390.298 106.009 393.869 106.065C396.447 106.065 400.063 111.297 400.063 111.297L403.288 107.697Z" fill="#263238"/>
<path d="M378.837 116.652C377.285 118.888 376.002 121.359 374.64 123.74C373.279 126.122 371.962 128.526 370.556 130.862C369.15 133.199 367.665 135.502 366.025 137.671C364.428 139.857 362.619 141.88 360.623 143.708C358.664 145.551 356.368 146.997 353.86 147.968C351.288 148.859 348.581 149.298 345.859 149.264C343.106 149.238 340.395 148.58 337.935 147.341C336.691 146.721 335.532 145.944 334.487 145.027C333.969 144.566 333.481 144.073 333.025 143.551C332.55 143.038 332.151 142.458 331.842 141.83C332.406 143.131 333.23 144.303 334.264 145.273C335.262 146.287 336.387 147.166 337.612 147.889C338.86 148.605 340.19 149.168 341.573 149.566C342.96 149.959 344.386 150.192 345.825 150.259C347.253 150.331 348.684 150.267 350.1 150.069L351.16 149.902L352.198 149.689C352.9 149.536 353.593 149.342 354.273 149.108C356.943 148.1 359.392 146.581 361.483 144.636C365.476 140.767 368.825 136.283 371.404 131.354C372.754 128.939 373.982 126.48 375.176 124.009C376.37 121.538 377.542 119.067 378.837 116.652Z" fill="#263238"/>
<path d="M403.322 108.994C403.188 107.091 402.813 105.212 402.206 103.404C401.59 101.639 400.58 100.038 399.253 98.7222C397.927 97.4068 396.318 96.4118 394.55 95.8128C393.672 95.5136 392.768 95.3002 391.849 95.1755C390.942 95.0247 390.022 94.9685 389.104 95.0078C387.272 95.1493 385.479 95.607 383.803 96.3606C382.112 97.1552 380.508 98.1218 379.015 99.245C375.98 101.481 373.167 104.075 370.255 106.568C367.354 109.123 364.265 111.455 361.014 113.544C357.678 115.494 354.197 117.184 350.602 118.598C347.041 119.941 343.574 121.521 340.223 123.327C338.554 124.244 337.009 125.371 335.625 126.681L334.621 127.676C334.308 128.045 334.029 128.425 333.728 128.794L333.281 129.353L332.902 129.956L332.154 131.186C333.811 127.662 336.486 124.717 339.832 122.734C343.153 120.788 346.598 119.063 350.144 117.569C353.627 116.065 357.005 114.328 360.255 112.37C363.43 110.298 366.444 107.988 369.272 105.461C372.196 103.002 375.009 100.385 378.2 98.1382C379.791 96.9841 381.496 95.9987 383.289 95.1979C385.119 94.4061 387.079 93.9625 389.07 93.8898C390.067 93.8851 391.062 93.9825 392.039 94.1805C393.009 94.3569 393.961 94.6188 394.885 94.9631C396.742 95.6402 398.412 96.7525 399.753 98.2072C401.095 99.6619 402.069 101.417 402.596 103.326C403.105 105.171 403.349 107.08 403.322 108.994V108.994Z" fill="#263238"/>
<path d="M407.864 107.954C407.73 106.568 406.525 104.913 405.632 104.779C404.739 104.645 398.467 108.289 398.099 110.056C397.731 111.822 400.856 112.952 400.856 112.952L407.864 107.954Z" fill="#5DBD6D"/>
<path d="M418.857 155.983C426.903 138.095 434.693 124.109 446.757 102.934C453.028 91.9107 463.943 74.1568 466.744 69.3941C470.438 63.1781 496.82 87.2821 493.841 91.1951C491.899 93.7777 480.839 109.81 470.159 121.146C456.443 135.68 446.321 149.186 431.01 164.212C419.437 175.604 413.544 167.8 418.857 155.983Z" fill="#FFCCB3"/>
<path d="M486.419 98.8534C493.037 96.282 513.114 82.0834 516.439 78.4611C519.765 74.8388 528.593 63.5246 526.048 60.6849C523.504 57.8452 520.658 60.9309 520.658 60.9309C520.658 60.9309 524.006 55.1285 520.803 52.9595C518.258 51.2378 514.029 55.3744 514.029 55.3744C514.029 55.3744 517.377 48.8229 513.917 47.0789C510.781 45.4801 507.344 51.1037 507.344 51.1037C507.344 51.1037 509.576 45.3348 506.228 44.3957C502.244 43.2777 498.416 53.2279 494.398 57.0067C493.494 57.8676 468.094 73.2289 468.094 73.2289L486.419 98.8534Z" fill="#FFCCB3"/>
<path d="M507.188 50.8019C503.539 57.9795 501.82 60.8639 495.604 65.4477C495.481 65.5371 495.604 65.7384 495.715 65.6489C502.222 61.7024 504.51 58.4602 507.556 50.9249C507.701 50.5559 507.367 50.4665 507.188 50.8019Z" fill="#263238"/>
<path d="M513.951 55.3633C510.268 62.7198 507.534 65.5036 501.34 70.8029C501.251 70.8812 501.34 71.0265 501.463 70.9594C507.947 66.275 511.507 63.2564 514.174 55.4304C514.33 55.0727 514.118 55.0279 513.951 55.3633Z" fill="#263238"/>
<path d="M520.312 61.1993C516.283 68.0638 513.46 71.4402 506.82 75.8228C506.794 75.8451 506.777 75.8756 506.772 75.9091C506.766 75.9426 506.773 75.9769 506.79 76.006C506.807 76.0352 506.834 76.0575 506.866 76.0689C506.898 76.0804 506.933 76.0803 506.965 76.0687C514.174 72.2675 517.723 68.0862 520.513 61.3447C520.736 60.8863 520.602 60.7633 520.312 61.1993Z" fill="#263238"/>
<path d="M463.273 75.7891C463.273 75.7891 466.008 65.0004 476.23 61.0315C480.348 59.4216 486.118 47.1571 489.923 47.4031C494.175 47.6826 491.129 58.7843 485.951 64.7544C485.951 64.7544 492.859 75.7555 488.183 81.7257C487.167 83.0225 479.746 87.1256 477.893 86.7455L463.273 75.7891Z" fill="#FFCCB3"/>
<path d="M485.638 65.5483C488.484 69.7408 490.459 76.1022 488.439 80.7308C488.424 80.7575 488.42 80.7889 488.429 80.8183C488.437 80.8476 488.457 80.8725 488.484 80.8873C488.51 80.9021 488.542 80.9057 488.571 80.8973C488.6 80.889 488.625 80.8693 488.64 80.8426C491.486 76.1805 489.254 68.7905 486.497 65.1906C485.961 64.5086 484.901 64.475 485.638 65.5483Z" fill="#263238"/>
<path d="M426.657 206.629L424.916 215.841H368C368 215.841 376.928 169.12 397.741 155.257C408.165 148.325 417.673 151.366 422.293 159.147C423.465 161.115 435.373 181.731 435.038 191.569C434.726 200.335 426.657 206.629 426.657 206.629Z" fill="#FFCCB3"/>
<path d="M435.05 191.614C434.748 199.786 427.617 205.846 426.736 206.573L371.248 202.827C372.543 198.288 374.217 192.967 376.348 187.477C381.861 187.676 387.381 187.426 392.854 186.728C395.276 186.27 400.666 178.187 407.563 179.014C414.46 179.841 421.356 186.728 421.356 186.728C424.384 183.482 428.308 181.213 432.628 180.21C434.101 184.47 435.161 188.573 435.05 191.614Z" fill="#263238"/>
<path d="M422.305 159.136C422.01 158.633 421.686 158.148 421.334 157.683C422.975 162.445 426.077 172.943 422.082 173.983C417.696 175.101 406.659 157.962 403.244 152.473C401.308 153.174 399.464 154.109 397.753 155.256C381.783 165.71 368.402 203.465 366.762 215.807H424.928L426.657 206.595C426.657 206.595 434.726 200.301 435.05 191.58C435.385 181.731 423.477 161.115 422.305 159.136ZM400.621 181.999C397.675 188.383 390.968 193.336 386.504 192.732C382.854 192.229 381.147 187.265 382.598 180.926C385.098 170.126 395.733 154.206 400.577 154.586C406.134 155.022 405.509 171.367 400.621 181.999Z" fill="#455A64"/>
<path d="M408.255 198.892C411.369 199.423 414.432 200.228 417.406 201.296C418.89 201.855 420.33 202.503 421.78 203.174C422.495 203.521 423.22 203.823 424.012 204.124C424.759 204.47 425.553 204.703 426.367 204.818C426.434 204.818 426.423 204.952 426.367 204.952C425.597 204.95 424.828 204.887 424.068 204.762C423.332 204.603 422.608 204.39 421.903 204.124C420.397 203.577 418.912 202.939 417.439 202.369C414.404 201.251 411.379 200.133 408.288 199.194C408.054 199.161 408.109 198.859 408.255 198.892Z" fill="#263238"/>
<path d="M400.353 201.754C402.936 201.581 405.527 201.581 408.109 201.754C409.404 201.855 410.676 202.045 411.96 202.269C412.562 202.381 413.176 202.504 413.779 202.638C414.381 202.772 415.095 203.04 415.765 203.174C415.843 203.174 415.832 203.32 415.765 203.308C415.129 203.197 414.471 203.23 413.834 203.163L411.904 202.984C410.62 202.872 409.337 202.772 408.042 202.638C405.476 202.369 402.909 202.146 400.331 201.989C400.186 202 400.219 201.754 400.353 201.754Z" fill="#263238"/>
<path d="M372.107 196.6C377.623 196.9 383.152 196.9 388.668 196.6C399.304 195.874 411.301 193.939 411.546 194.096C411.993 194.387 432.951 193.895 432.951 193.895L434.569 194.812L434.826 193.694L433.386 192.911C433.896 191.307 434.011 189.604 433.721 187.947C433.23 185.32 429.257 174.531 429.146 174.229C429.034 173.927 422.16 158.331 422.07 158.242C421.981 158.152 421.334 157.672 421.334 157.672L428.186 174.319C425.926 174.818 423.632 175.151 421.323 175.314C418.505 175.178 415.697 174.898 412.908 174.475C412.908 174.475 407.998 161.551 407.216 160.221C406.435 158.89 403.779 152.26 403.511 152.395C403.258 152.479 403.001 152.55 402.741 152.607C402.741 152.607 406.759 162.669 407.339 163.698C407.919 164.726 411.669 175.224 411.669 175.224C411.669 175.224 412.473 183.989 412.506 185.566C412.294 187.899 411.944 190.217 411.457 192.508C411.457 192.508 399.516 194.264 388.97 195.169C380.176 195.941 372.475 195.896 372.364 195.896C372.252 195.896 372.107 196.6 372.107 196.6Z" fill="white"/>
<path d="M418.298 179.841L418.801 190.619C418.801 191.189 418.522 191.636 418.142 191.659C417.763 191.681 417.439 191.256 417.417 190.686L416.993 181.742L416.513 182.178C416.424 182.278 416.3 182.338 416.167 182.346C416.029 182.335 415.897 182.284 415.787 182.198C415.678 182.113 415.597 181.997 415.553 181.865C415.442 181.643 415.398 181.393 415.428 181.147C415.458 180.9 415.56 180.668 415.72 180.479L417.193 179.07C417.193 179.07 417.193 179.07 417.26 179.07H417.327C417.327 179.07 417.327 179.07 417.383 179.07C417.412 179.059 417.444 179.059 417.472 179.07H417.64C417.64 179.07 417.696 179.07 417.718 179.07H417.774C417.774 179.07 417.83 179.126 417.852 179.126C417.87 179.13 417.889 179.13 417.908 179.126V179.182C417.908 179.182 417.908 179.182 417.964 179.249C418.019 179.316 417.964 179.249 417.964 179.327L418.019 179.394C418.019 179.394 418.019 179.45 418.019 179.484C418.019 179.517 418.019 179.562 418.019 179.573C418.022 179.603 418.022 179.633 418.019 179.662C418.003 179.706 418.003 179.753 418.019 179.797L418.298 179.841Z" fill="#263238"/>
<path d="M429.704 179.685L427.081 190.641C426.992 191.021 426.757 191.256 426.467 191.267C426.374 191.275 426.281 191.256 426.199 191.211C426.011 191.059 425.87 190.856 425.793 190.626C425.716 190.397 425.706 190.15 425.764 189.914L427.996 180.412L424.771 180.557C424.392 180.557 424.057 180.11 424.034 179.562C424.012 179.014 424.302 178.544 424.671 178.533L428.967 178.332C429.007 178.322 429.05 178.322 429.09 178.332C429.187 178.358 429.278 178.404 429.358 178.466V178.522C429.365 178.544 429.365 178.567 429.358 178.589L429.414 178.656V178.735C429.415 178.764 429.415 178.794 429.414 178.824V178.913C429.414 178.913 429.414 178.98 429.414 179.003C429.409 179.032 429.409 179.063 429.414 179.092C429.425 179.226 429.425 179.361 429.414 179.495C429.715 179.573 429.715 179.629 429.704 179.685Z" fill="#263238"/>
<path d="M407.496 153.166C407.708 154.429 413.143 162.904 418.856 163.004C420.709 163.004 421.323 152.875 421.323 152.875L421.535 152.126L424.548 141.773L412.73 133.042L411.011 131.924C411.011 131.924 410.375 134.808 409.616 138.419C409.616 138.587 409.549 138.755 409.504 138.934C409.46 139.113 409.415 139.325 409.382 139.515C409.259 140.052 409.136 140.633 409.025 141.147C408.913 141.662 408.857 141.975 408.79 142.411C408.723 142.847 408.634 143.283 408.545 143.73C407.984 146.848 407.634 150.001 407.496 153.166V153.166Z" fill="#FFCCB3"/>
<path d="M409.616 138.397C410.489 141.415 412.007 144.206 414.066 146.577C416.124 148.948 418.673 150.842 421.535 152.126L424.548 141.773L412.73 133.042L411.011 131.924C411.011 131.924 410.375 134.786 409.616 138.397Z" fill="#263238"/>
<path d="M433.32 117.446C442.571 133.97 433.733 141.382 430.173 143.372C426.947 145.183 415.665 150.941 404.817 135.468C393.97 119.995 398.657 110.458 405.833 105.93C413.008 101.402 424.068 100.933 433.32 117.446Z" fill="#FFCCB3"/>
<path d="M428.8 116.093C428.396 116.25 427.982 116.381 427.561 116.484C427.141 116.685 426.666 116.74 426.211 116.641C426.074 116.583 425.96 116.481 425.888 116.352C425.815 116.222 425.787 116.072 425.809 115.925C425.899 115.646 426.061 115.396 426.278 115.2C426.496 115.003 426.761 114.868 427.048 114.807C427.615 114.59 428.243 114.59 428.811 114.807C428.931 114.867 429.031 114.959 429.101 115.074C429.171 115.188 429.207 115.32 429.206 115.454C429.205 115.588 429.166 115.719 429.094 115.832C429.023 115.945 428.92 116.035 428.8 116.093V116.093Z" fill="#263238"/>
<path d="M418.008 122.253C418.363 121.998 418.698 121.718 419.013 121.415C419.411 121.175 419.717 120.809 419.883 120.375C419.91 120.227 419.886 120.075 419.815 119.943C419.744 119.811 419.63 119.707 419.492 119.648C419.208 119.564 418.906 119.559 418.619 119.634C418.332 119.708 418.07 119.86 417.863 120.073C417.365 120.428 417.022 120.96 416.903 121.56C416.884 121.697 416.905 121.836 416.963 121.961C417.022 122.086 417.115 122.192 417.232 122.265C417.348 122.338 417.484 122.376 417.622 122.374C417.759 122.372 417.894 122.33 418.008 122.253V122.253Z" fill="#263238"/>
<path d="M427.048 133.4C427.443 133.615 427.9 133.686 428.342 133.601C428.777 133.392 429.159 133.086 429.458 132.707C429.458 132.707 429.547 132.707 429.536 132.707C429.487 133.011 429.358 133.297 429.162 133.535C428.966 133.773 428.71 133.954 428.42 134.059C428.154 134.111 427.878 134.082 427.627 133.977C427.377 133.871 427.164 133.694 427.014 133.467C426.903 133.444 426.981 133.377 427.048 133.4Z" fill="#263238"/>
<path d="M429.481 126.703C429.481 126.703 430.653 128.257 431.088 129.051C431.088 129.118 430.965 129.263 430.697 129.431C430.083 129.937 429.341 130.263 428.553 130.374C427.766 130.484 426.963 130.375 426.233 130.057C426.217 130.044 426.206 130.027 426.2 130.008C426.194 129.988 426.194 129.968 426.2 129.948C426.206 129.929 426.218 129.912 426.234 129.9C426.25 129.887 426.269 129.879 426.289 129.878C427.682 130.008 429.08 129.683 430.273 128.95C430.206 128.704 428.186 126.356 428.309 126.278C428.953 125.99 429.632 125.791 430.329 125.686C427.996 122.332 425.151 119.47 422.874 116.149C422.855 116.125 422.845 116.094 422.847 116.063C422.85 116.033 422.863 116.004 422.886 115.983C422.908 115.961 422.938 115.95 422.969 115.949C423 115.949 423.03 115.961 423.053 115.981C426.199 119 429.036 122.326 431.523 125.909C431.836 126.334 429.916 126.658 429.481 126.703Z" fill="#263238"/>
<path d="M429.771 129.688C429.645 130.425 429.334 131.117 428.867 131.7C428.601 132.008 428.246 132.227 427.851 132.326C426.992 132.528 426.602 131.846 426.423 131.208C426.325 130.844 426.276 130.468 426.278 130.09C427.455 130.337 428.68 130.196 429.771 129.688V129.688Z" fill="#263238"/>
<path d="M428.867 131.678C428.6 131.986 428.246 132.205 427.851 132.304C426.992 132.506 426.601 131.824 426.423 131.186C426.827 130.985 427.286 130.923 427.729 131.013C428.172 131.102 428.572 131.336 428.867 131.678V131.678Z" fill="#FF9CBD"/>
<path d="M420.352 126.055C420.349 126.212 420.315 126.368 420.251 126.513C420.21 126.633 420.143 126.743 420.054 126.834C419.965 126.925 419.857 126.995 419.738 127.038C419.001 127.329 418.321 126.748 417.908 126.055C417.908 126.055 417.908 125.965 417.908 125.987C418.388 126.2 418.923 126.401 419.292 126.133C419.523 125.896 419.682 125.597 419.749 125.272C419.924 125.552 420.126 125.814 420.352 126.055Z" fill="#263238"/>
<path d="M419.872 126.055C419.732 125.699 419.693 125.312 419.761 124.937C419.805 124.738 419.889 124.55 420.008 124.385C420.127 124.22 420.278 124.08 420.452 123.975C420.638 123.882 420.842 123.833 421.05 123.833C421.257 123.833 421.461 123.882 421.647 123.975C421.974 124.129 422.261 124.359 422.484 124.646C422.617 124.815 422.736 124.994 422.841 125.182C423.071 125.571 423.208 126.007 423.242 126.457C423.094 126.169 422.918 125.896 422.718 125.641C422.532 125.412 422.33 125.195 422.115 124.992C421.68 124.59 421.156 124.344 420.776 124.59C420.563 124.731 420.404 124.941 420.327 125.186C420.25 125.43 420.259 125.693 420.352 125.932C420.494 126.539 420.696 127.131 420.955 127.698C420.468 127.244 420.097 126.681 419.872 126.055V126.055Z" fill="#263238"/>
<path d="M430.519 119.715C430.656 119.791 430.802 119.847 430.954 119.883C431.078 119.912 431.207 119.914 431.332 119.889C431.458 119.864 431.576 119.813 431.679 119.738C431.952 119.472 432.12 119.117 432.153 118.737C432.186 118.357 432.081 117.978 431.858 117.669C431.858 117.669 431.791 117.591 431.78 117.669C431.691 118.195 431.568 118.787 431.144 118.91C430.819 118.98 430.48 118.949 430.173 118.821C430.322 119.105 430.438 119.405 430.519 119.715Z" fill="#263238"/>
<path d="M430.764 119.324C430.543 119.031 430.251 118.8 429.916 118.653C429.725 118.582 429.522 118.55 429.319 118.56C429.115 118.569 428.916 118.62 428.733 118.709C428.551 118.807 428.394 118.946 428.274 119.115C428.154 119.283 428.074 119.477 428.041 119.682C427.986 120.057 428.021 120.44 428.141 120.8C428.219 121.001 428.309 121.202 428.398 121.392C428.602 121.797 428.896 122.149 429.257 122.421C429.087 122.14 428.952 121.84 428.856 121.526C428.759 121.249 428.684 120.965 428.632 120.677C428.543 120.084 428.632 119.559 429.034 119.335C429.269 119.234 429.531 119.217 429.776 119.286C430.022 119.355 430.237 119.507 430.384 119.715C430.805 120.164 431.179 120.655 431.5 121.18C431.408 120.511 431.155 119.874 430.764 119.324V119.324Z" fill="#263238"/>
<path d="M412.886 107.328C414.014 108.575 414.741 110.133 414.973 111.8C415.151 116.54 410.073 117.938 409.303 120.252C408.533 122.566 410.609 125.071 410.029 127.173C409.214 130.079 407.239 129.341 407.629 130.806C408.02 132.271 409.326 136.899 407.942 138.308C406.558 139.716 384.361 115.948 406.603 105.416C406.603 105.416 408.957 102.42 414.816 102.521C423.22 102.666 428.8 110.682 428.8 110.682C427.967 110.906 427.096 110.952 426.244 110.816C424.715 110.447 423.822 110.022 422.74 109.821C421.032 109.519 420.642 110.581 418.901 110.324C416.211 109.911 412.886 107.328 412.886 107.328Z" fill="#263238"/>
<path d="M412.194 106.456C413.103 107.363 413.905 108.372 414.582 109.463C415.306 110.49 415.735 111.697 415.821 112.952C415.736 114.209 415.191 115.391 414.292 116.272C413.455 117.2 412.372 117.904 411.491 118.944C411.033 119.475 410.729 120.12 410.609 120.811C410.555 121.491 410.634 122.175 410.844 122.823C411.302 123.984 411.433 125.249 411.223 126.479C411.069 127.073 410.79 127.626 410.405 128.102C410.021 128.579 409.538 128.967 408.991 129.241C407.875 129.822 406.513 130.146 405.699 131.197C406.603 130.213 407.931 130.079 409.114 129.509C409.734 129.246 410.289 128.849 410.738 128.347C411.188 127.844 411.521 127.249 411.714 126.602C412.007 125.294 411.906 123.929 411.424 122.678C411.245 122.1 411.177 121.493 411.223 120.889C411.34 120.308 411.61 119.767 412.004 119.324C412.785 118.374 413.868 117.636 414.75 116.641C415.206 116.147 415.582 115.585 415.866 114.975C416.176 114.363 416.326 113.682 416.301 112.996C416.161 111.669 415.654 110.407 414.839 109.352C414.077 108.283 413.189 107.311 412.194 106.456V106.456Z" fill="#263238"/>
<path d="M413.176 107.228C413.939 108.162 414.825 108.99 415.81 109.687C416.81 110.436 418.01 110.872 419.258 110.939C419.866 110.933 420.471 110.865 421.066 110.738C421.603 110.644 422.156 110.702 422.662 110.906C423.175 111.221 423.717 111.487 424.28 111.7C424.869 111.864 425.487 111.891 426.088 111.778C425.503 111.771 424.926 111.646 424.392 111.409C423.859 111.156 423.355 110.848 422.885 110.492C422.306 110.188 421.646 110.075 420.999 110.168C420.432 110.276 419.857 110.332 419.28 110.336C418.135 110.244 417.032 109.859 416.077 109.218C415.069 108.616 414.1 107.951 413.176 107.228V107.228Z" fill="#263238"/>
<path d="M408.6 134.775C408.6 134.775 402.596 130.795 400.654 133.154C398.713 135.513 404.728 142.333 408.087 142.266C408.517 142.287 408.947 142.22 409.351 142.071C409.755 141.921 410.125 141.691 410.438 141.394C410.75 141.097 411 140.74 411.171 140.345C411.343 139.949 411.432 139.522 411.435 139.091L408.6 134.775Z" fill="#FFCCB3"/>
<path d="M402.429 135.065C402.373 135.065 402.429 135.155 402.429 135.155C404.806 135.155 406.636 136.653 408.176 138.319C407.976 138.16 407.744 138.047 407.496 137.987C407.247 137.927 406.989 137.922 406.738 137.972C406.488 138.022 406.251 138.126 406.045 138.276C405.838 138.427 405.667 138.621 405.543 138.844C405.543 138.911 405.543 138.967 405.643 138.934C405.955 138.683 406.336 138.534 406.735 138.506C407.134 138.478 407.531 138.573 407.875 138.777C408.454 139.136 408.992 139.556 409.482 140.029C409.65 140.175 409.94 139.94 409.783 139.761C408.813 137.078 405.364 134.216 402.429 135.065Z" fill="#263238"/>
<path d="M435.496 122.063C436.682 124.446 437.402 127.034 437.616 129.688C437.728 131.024 437.672 132.369 437.449 133.691C437.34 134.355 437.191 135.012 437.003 135.658C436.791 136.303 436.542 136.933 436.255 137.548C435.665 138.761 434.914 139.89 434.023 140.902C433.108 141.883 432.069 142.74 430.932 143.451C428.661 144.848 426.081 145.662 423.421 145.821C424.708 145.587 425.965 145.212 427.171 144.703C429.572 143.764 431.723 142.279 433.454 140.365C434.296 139.409 435.002 138.34 435.552 137.19C436.655 134.866 437.161 132.303 437.025 129.733C436.997 128.437 436.851 127.146 436.59 125.876C436.325 124.578 435.96 123.304 435.496 122.063Z" fill="#263238"/>
<path d="M393.936 170.025C393.669 169.589 393.401 169.153 393.122 168.717C394.863 170.483 396.671 172.16 398.545 173.782C398.545 173.782 398.657 173.782 398.612 173.714C396.771 171.59 394.896 169.511 392.943 167.487C392.017 166.537 391.124 165.553 390.164 164.625C389.205 163.697 387.932 162.602 386.95 161.506C386.827 161.372 386.615 161.506 386.738 161.674C387.709 162.713 388.58 163.843 389.517 164.927C390.454 166.011 391.191 166.761 392.061 167.644C392.226 167.989 392.409 168.324 392.608 168.65C392.943 169.175 393.278 169.69 393.646 170.193C394.383 171.188 395.164 172.16 395.878 173.133C395.231 172.172 394.572 171.054 393.936 170.025Z" fill="#263238"/>
<path d="M401.369 154.418C392.831 135.412 385.678 121.695 372.877 99.2115C366.181 87.5061 357.767 73.4975 354.787 68.4442C350.87 61.8368 322.858 87.3719 326.028 91.5868C328.081 94.3371 334.889 103.214 346.908 117.48C360.613 133.724 372.219 147.241 388.479 163.206C400.755 175.247 407.016 166.962 401.369 154.418Z" fill="#FFCCB3"/>
<path d="M332.958 97.9592C325.927 95.2312 304.623 80.2053 301.085 76.3035C297.547 72.4017 288.184 60.4614 290.885 57.4428C293.585 54.4242 296.61 57.7 296.61 57.7C296.61 57.7 293.061 51.5398 296.453 49.2367C299.154 47.4032 303.641 51.7969 303.641 51.7969C303.641 51.7969 300.114 44.843 303.763 42.9871C307.111 41.2989 310.749 47.2579 310.749 47.2579C310.749 47.2579 308.384 41.1424 311.865 40.125C316.095 38.9176 320.191 49.5162 324.42 53.541C325.38 54.4578 352.32 70.7582 352.32 70.7582L332.958 97.9592Z" fill="#FFCCB3"/>
<path d="M310.894 46.9562C314.778 54.5809 316.608 57.6219 323.17 62.5075C323.293 62.597 323.17 62.8094 323.037 62.72C316.129 58.5275 313.707 55.084 310.47 47.068C310.359 46.6878 310.716 46.5872 310.894 46.9562Z" fill="#263238"/>
<path d="M303.73 51.7858C307.58 59.6118 310.537 62.5521 317.122 68.1757C317.211 68.2539 317.122 68.4216 316.988 68.3545C310.113 63.3683 306.319 60.1596 303.495 51.8529C303.317 51.4839 303.551 51.428 303.73 51.7858Z" fill="#263238"/>
<path d="M296.933 57.9795C301.208 65.2688 304.21 68.8576 311.263 73.5085C311.293 73.5317 311.314 73.5651 311.321 73.6025C311.329 73.64 311.322 73.6788 311.303 73.7118C311.284 73.7447 311.253 73.7695 311.217 73.7815C311.181 73.7935 311.142 73.7918 311.107 73.7768C303.451 69.7408 299.679 65.2912 296.721 58.1248C296.52 57.6441 296.666 57.5211 296.933 57.9795Z" fill="#263238"/>
<path d="M357.532 73.4747C357.532 73.4747 354.631 62.0152 343.783 57.8227C339.397 56.1234 333.271 43.0987 329.275 43.3558C324.811 43.6577 327.992 55.4414 333.494 61.7804C333.494 61.7804 326.15 73.4524 331.15 79.8026C332.266 81.1777 340.078 85.5268 342.065 85.1355L357.532 73.4747Z" fill="#FFCCB3"/>
<path d="M333.784 62.6082C330.771 67.0802 328.661 73.7882 330.815 78.7186C330.831 78.7482 330.835 78.7832 330.826 78.8157C330.816 78.8481 330.795 78.8756 330.765 78.8919C330.735 78.9082 330.7 78.912 330.668 78.9026C330.636 78.8932 330.608 78.8712 330.592 78.8416C327.579 73.8888 329.945 66.0405 332.88 62.2281C333.438 61.4902 334.565 61.4902 333.784 62.6082Z" fill="#263238"/>
<path d="M424.961 218.334C411.435 211.883 372.688 198.702 346.216 192.296C322.523 186.583 298.038 194.823 274.368 202.783C259.402 207.814 245.274 212.565 231.569 213.829C177.789 218.793 160.223 180.512 159.029 178.88L168.962 181.362L170.714 170.249C171.718 171.613 184.865 203.543 230.252 199.317C242.272 198.199 255.619 193.727 269.759 188.964C294.188 180.747 321.876 171.434 349.62 178.12C377.062 184.727 419.169 197.864 429.023 204.314L424.961 218.334Z" fill="#5DBD6D"/>
<path d="M237.038 499.635L247.472 497.745C247.472 497.745 236.312 486.342 243.176 479.321C250.039 472.3 260.284 478.505 260.284 478.505C260.284 478.505 258.688 461.813 271.578 458.325C284.468 454.837 295.795 479.779 295.795 479.779C295.795 479.779 297.692 473.921 307.312 476.224C316.932 478.527 324.532 491.652 324.532 491.652L522.298 499.534" fill="white"/>
<path d="M134.945 499.856L148.199 497.916V497.995C145.297 495.61 142.936 492.848 141.218 489.831C140.355 488.311 139.873 486.674 139.798 485.009C139.748 483.319 140.407 481.663 141.672 480.299C142.294 479.626 143.024 479.019 143.843 478.494C144.658 477.959 145.548 477.499 146.496 477.126C148.402 476.404 150.485 476.022 152.598 476.004C156.825 476.015 160.977 476.892 164.646 478.55L164.291 478.729C164.073 476.21 164.283 473.68 164.916 471.205C165.509 468.715 166.693 466.337 168.407 464.196C169.72 462.591 171.435 461.215 173.446 460.152C175.456 459.09 177.721 458.363 180.1 458.017C181.707 457.807 183.35 457.845 184.939 458.129C188.086 458.75 191.003 459.948 193.453 461.628C195.894 463.25 198.115 465.069 200.08 467.055C203.979 471.03 207.31 475.332 210.013 479.884H209.417C210.229 478.392 211.717 477.192 213.589 476.52C215.415 475.871 217.407 475.568 219.407 475.634C223.377 475.703 227.25 476.617 230.618 478.281C233.927 479.952 236.914 481.992 239.487 484.336C242.09 486.647 244.422 489.139 246.455 491.782L246.27 491.693L497.741 499.778L246.256 492.04H246.142V491.962C244.119 489.341 241.791 486.874 239.189 484.594C236.64 482.288 233.681 480.286 230.405 478.651C227.116 477.035 223.336 476.151 219.464 476.094C217.555 476.034 215.654 476.329 213.916 476.957C212.203 477.575 210.842 478.674 210.098 480.041L209.815 480.58L209.502 480.064C206.79 475.561 203.459 471.308 199.569 467.381C197.648 465.418 195.469 463.621 193.07 462.02C190.716 460.388 187.912 459.212 184.882 458.589C183.317 458.304 181.697 458.266 180.114 458.477C178.586 458.694 177.102 459.071 175.701 459.598C172.872 460.663 170.474 462.329 168.776 464.409C167.095 466.506 165.93 468.834 165.341 471.272C164.709 473.705 164.484 476.194 164.674 478.673V479.021L164.291 478.853C160.704 477.216 156.641 476.343 152.499 476.318C150.437 476.344 148.407 476.727 146.553 477.44C144.71 478.161 143.103 479.208 141.856 480.501C140.646 481.799 140.008 483.375 140.04 484.987C140.084 486.62 140.527 488.23 141.345 489.73C143.017 492.741 145.326 495.506 148.171 497.905L148.256 497.973H148.143L134.945 499.856Z" fill="#BFBFBF"/>
<path d="M368.815 209.48C363.235 209.703 357.655 209.815 352.075 209.905C346.495 209.994 340.915 209.994 335.335 210.039C329.755 210.083 324.175 210.039 318.595 209.905L310.214 209.748C307.424 209.659 304.634 209.603 301.844 209.48C304.634 209.357 307.424 209.301 310.214 209.2L318.595 209.044C324.175 208.954 329.755 208.965 335.335 208.921C340.915 208.876 346.495 208.921 352.075 209.055C357.655 209.189 363.224 209.245 368.815 209.48Z" fill="#263238"/>
<path d="M455.037 76.9633C449.457 77.1869 443.877 77.2987 438.297 77.3882C432.717 77.4776 427.137 77.4664 421.557 77.5112C415.977 77.5559 410.397 77.5112 404.817 77.3882L396.436 77.2317C393.646 77.1422 390.856 77.0863 388.055 76.9633C390.856 76.8292 393.635 76.7733 396.436 76.6838L404.817 76.5273C410.397 76.4379 415.977 76.4379 421.557 76.4043C427.137 76.3708 432.717 76.4043 438.297 76.5273C443.877 76.6503 449.446 76.7286 455.037 76.9633Z" fill="#263238"/>
<path d="M463.831 83.7381C460.171 83.9728 456.522 84.0735 452.861 84.1629C449.201 84.2523 445.551 84.2859 441.902 84.2971C438.253 84.3082 434.581 84.2971 430.932 84.1741L425.452 84.0176C423.633 83.9169 421.803 83.8722 419.973 83.7381C421.803 83.6151 423.633 83.5592 425.452 83.4697L430.943 83.3132C434.592 83.2126 438.253 83.1902 441.913 83.1791C445.574 83.1679 449.223 83.1791 452.872 83.3132C456.522 83.4474 460.171 83.5145 463.831 83.7381Z" fill="#263238"/>
<path d="M224.717 290.904C219.818 291.127 214.907 291.239 210.008 291.329C205.109 291.418 200.198 291.418 195.299 291.463C190.4 291.508 185.489 291.463 180.579 291.329L173.236 291.172C170.781 291.083 168.325 291.027 165.881 290.904C168.325 290.781 170.781 290.725 173.236 290.624L180.59 290.468C185.501 290.378 190.4 290.39 195.31 290.345C200.221 290.3 205.12 290.345 210.019 290.479C214.918 290.613 219.818 290.68 224.717 290.904Z" fill="#263238"/>
<path d="M257.137 280.831C252.227 281.054 247.327 281.166 242.417 281.256C237.507 281.345 232.607 281.345 227.708 281.39C222.809 281.435 217.899 281.39 212.988 281.256L205.634 281.099C203.179 281.01 200.734 280.954 198.279 280.831C200.734 280.697 203.179 280.652 205.634 280.551L212.988 280.395C217.899 280.305 222.798 280.317 227.708 280.272C232.619 280.227 237.518 280.272 242.417 280.395C247.316 280.518 252.227 280.618 257.137 280.831Z" fill="#263238"/>
<path d="M378.87 223.868C371.058 224.102 363.246 224.203 355.434 224.292L331.998 224.427L308.562 224.304L296.867 224.147C292.961 224.046 289.055 224.002 285.16 223.868C289.066 223.745 292.972 223.689 296.867 223.599L308.562 223.443L331.998 223.309L355.434 223.443C363.28 223.532 371.069 223.599 378.87 223.868Z" fill="#263238"/>
<path d="M498.628 479.51C492.981 479.745 487.334 479.846 481.687 479.935C476.04 480.025 470.382 480.025 464.735 480.069C459.088 480.114 453.441 480.069 447.794 479.935L439.313 479.779C436.489 479.689 433.666 479.633 430.842 479.51C433.666 479.387 436.489 479.331 439.313 479.231L447.794 479.074C453.441 478.996 459.088 478.996 464.735 478.951C470.382 478.907 476.04 478.951 481.687 479.085C487.334 479.22 492.981 479.276 498.628 479.51Z" fill="#BFBFBF"/>
<path d="M482.212 486.811C474.232 487.046 466.242 487.158 458.263 487.247L434.302 487.37L410.353 487.247L398.378 487.09C394.383 487.001 390.399 486.945 386.403 486.811C390.399 486.688 394.383 486.632 398.378 486.543L410.353 486.386L434.302 486.252L458.263 486.386C466.242 486.476 474.232 486.587 482.212 486.811Z" fill="#BFBFBF"/>
<path d="M331.005 214.935C324.309 215.159 317.535 215.271 310.805 215.36C304.076 215.45 297.335 215.438 290.606 215.494C283.876 215.55 277.135 215.494 270.395 215.36L260.295 215.204C256.947 215.114 253.599 215.058 250.251 214.935C253.599 214.801 256.947 214.745 260.295 214.656L270.395 214.499C277.091 214.41 283.865 214.421 290.606 214.376C297.346 214.332 304.065 214.376 310.805 214.499C317.546 214.622 324.275 214.656 331.005 214.935Z" fill="#263238"/>
</svg>
