<svg width="108" height="20" viewBox="0 0 108 20" fill="none" xmlns="http://www.w3.org/2000/svg">
<path d="M97.9998 3.33301L100.069 7.8186L104.974 8.40022L101.348 11.7541L102.31 16.5991L97.9998 14.1863L93.6894 16.5991L94.6521 11.7541L91.0254 8.40022L95.9308 7.8186L97.9998 3.33301Z" fill="#F0B14E" stroke="#F0B14E" stroke-width="1.33333" stroke-linejoin="round"/>
<path d="M75.9998 3.33301L78.0688 7.8186L82.9742 8.40022L79.3475 11.7541L80.3102 16.5991L75.9998 14.1863L71.6894 16.5991L72.6521 11.7541L69.0254 8.40022L73.9308 7.8186L75.9998 3.33301Z" fill="#F0B14E" stroke="#F0B14E" stroke-width="1.33333" stroke-linejoin="round"/>
<path d="M53.9998 3.33301L56.0688 7.8186L60.9742 8.40022L57.3475 11.7541L58.3102 16.5991L53.9998 14.1863L49.6894 16.5991L50.6521 11.7541L47.0254 8.40022L51.9308 7.8186L53.9998 3.33301Z" fill="#F0B14E" stroke="#F0B14E" stroke-width="1.33333" stroke-linejoin="round"/>
<path d="M31.9998 3.33301L34.0688 7.8186L38.9742 8.40022L35.3475 11.7541L36.3102 16.5991L31.9998 14.1863L27.6894 16.5991L28.6521 11.7541L25.0254 8.40022L29.9308 7.8186L31.9998 3.33301Z" fill="#F0B14E" stroke="#F0B14E" stroke-width="1.33333" stroke-linejoin="round"/>
<path d="M9.9998 3.33301L12.0688 7.8186L16.9742 8.40022L13.3475 11.7541L14.3102 16.5991L9.9998 14.1863L5.68938 16.5991L6.65209 11.7541L3.02539 8.40022L7.9308 7.8186L9.9998 3.33301Z" fill="#F0B14E" stroke="#F0B14E" stroke-width="1.33333" stroke-linejoin="round"/>
</svg>
